<?xml version="1.0" encoding="utf-8"?>
<!-- Generator: Adobe Illustrator 19.1.0, SVG Export Plug-In . SVG Version: 6.00 Build 0)  -->
<svg version="1.1" id="Layer_1" xmlns="http://www.w3.org/2000/svg" xmlns:xlink="http://www.w3.org/1999/xlink" x="0px" y="0px"
	 viewBox="0 80 432 128" style="enable-background:new 0 0 432 288;" xml:space="preserve">
<style type="text/css">
	.st0{fill:#FFFFFF;}
</style>
<g>
	<path class="st0" d="M35.9,162.8v2.4c0,11.4,5,17.1,15.3,17.1c9.4,0,14.1-6.7,14.1-13.6c0-9.8-5-14.1-13.3-16.6l-10.2-3.5
		c-13.6-5.2-19.5-12.3-19.5-25.6c0-17,11.5-26.4,29.1-26.4c23.9,0,26.4,14.9,26.4,24.6v2.1H62.9v-2c0-8.5-3.8-13.5-13.1-13.5
		c-6.4,0-12.6,3.5-12.6,13.5c0,8,4.1,12,14,15.8l10.1,3.7c13.2,4.7,19,11.9,19,24.7c0,19.9-12,28.1-30.9,28.1
		C26.2,193.5,21,178.1,21,165v-2.2H35.9z"/>
	<path class="st0" d="M89.7,98.3h14.9V139h0.3l28.3-40.7h16.4l-27,39.4l29.8,54h-16.9l-22.6-42l-8.2,11.8v30.2H89.7V98.3z"/>
	<path class="st0" d="M170.2,155.2l-24.1-56.9h16.6l15.7,40.3l16.1-40.3h15.6l-25,56.9v36.5h-14.9V155.2z"/>
	<path class="st0" d="M262.4,98.3v67c0,11.8,4.7,17,13.7,17c8.9,0,13.6-5.2,13.6-17v-67h14.9v65.8c0,21.6-10.7,29.4-28.5,29.4
		c-17.9,0-28.7-7.8-28.7-29.4V98.3H262.4z"/>
	<path class="st0" d="M335.9,144.2l-22.5-45.9h16.5l14.9,31l14.7-31h16.1l-22.6,45.9l23.8,47.5h-16.5L344,157.9l-16.6,33.8h-16.1
		L335.9,144.2z"/>
	<path class="st0" d="M383.2,100.9H378V98h13.8v2.8h-5.1v14.3h-3.6V100.9z M411.2,101.6L411.2,101.6l-5.1,13.6h-2.3l-5-13.6h-0.1
		v13.6h-3.3V98h4.9l4.7,12.1l4.7-12.1h4.9v17.1h-3.3V101.6z"/>
</g>
</svg>
